<?xml version="1.0" standalone="no"?>
<!DOCTYPE svg PUBLIC "-//W3C//DTD SVG 20010904//EN"
 "http://www.w3.org/TR/2001/REC-SVG-20010904/DTD/svg10.dtd">
<svg version="1.0" xmlns="http://www.w3.org/2000/svg"
 width="512.000000pt" height="512.000000pt" viewBox="0 0 512.000000 512.000000"
 preserveAspectRatio="xMidYMid meet">
<metadata>
Created by potrace 1.14, written by Peter Selinger 2001-2017
</metadata>
<g transform="translate(0.000000,512.000000) scale(0.100000,-0.100000)"
fill="#000000" stroke="none">
<path d="M3268 4514 c-25 -6 -67 -27 -93 -45 -46 -33 -76 -84 -163 -280 -12
-26 -64 -143 -117 -260 -123 -274 -120 -265 -146 -324 -12 -27 -34 -77 -49
-110 -55 -121 -69 -152 -108 -240 -22 -49 -53 -119 -70 -155 -16 -36 -89 -198
-162 -360 -73 -162 -152 -338 -175 -390 -85 -189 -158 -351 -207 -460 -11 -25
-31 -70 -45 -100 -14 -30 -95 -210 -180 -400 -86 -190 -167 -369 -180 -398
-57 -124 -45 -225 36 -315 85 -94 253 -103 347 -19 46 41 65 79 284 567 111
248 216 479 232 515 17 36 37 79 44 97 8 18 66 148 130 289 155 345 153 342
180 401 13 29 73 162 133 295 60 134 125 278 145 321 20 43 36 80 36 82 0 2
15 36 34 77 19 40 105 231 191 423 87 193 168 374 181 403 35 77 43 123 32
183 -26 144 -170 239 -310 203z"/>
<path d="M1120 3742 c-54 -14 -67 -27 -567 -525 -361 -360 -517 -522 -530
-551 -28 -64 -24 -171 9 -227 15 -24 251 -268 525 -541 364 -363 509 -501 538
-513 22 -9 66 -16 97 -16 143 0 251 104 257 246 4 108 -5 119 -439 553 l-393
392 392 393 c233 232 401 408 413 432 31 59 35 151 11 206 -57 128 -180 187
-313 151z"/>
<path d="M3860 3661 c-84 -26 -149 -87 -174 -163 -20 -64 -20 -112 0 -174 15
-44 60 -92 410 -444 216 -217 394 -399 395 -404 1 -5 -176 -187 -393 -405
-368 -369 -396 -400 -413 -450 -20 -62 -16 -139 10 -194 21 -45 77 -101 124
-124 50 -25 163 -24 216 2 56 27 1034 1005 1060 1060 10 22 20 66 21 98 5 119
20 101 -533 655 -414 414 -512 507 -555 527 -54 25 -118 31 -168 16z"/>
</g>
</svg>
